<?xml version="1.0" encoding="utf-8"?>
<!-- Generator: Adobe Illustrator 16.0.3, SVG Export Plug-In . SVG Version: 6.00 Build 0)  -->
<!DOCTYPE svg PUBLIC "-//W3C//DTD SVG 1.1//EN" "http://www.w3.org/Graphics/SVG/1.1/DTD/svg11.dtd">
<svg version="1.1" id="Layer_1" xmlns="http://www.w3.org/2000/svg" xmlns:xlink="http://www.w3.org/1999/xlink" x="0px" y="0px"
	 width="960px" height="560px" viewBox="0 0 960 560" enable-background="new 0 0 960 560" xml:space="preserve">
<g>
	<linearGradient id="SVGID_1_" gradientUnits="userSpaceOnUse" x1="772.332" y1="212.2354" x2="-169.4194" y2="-134.3572">
		<stop  offset="0" style="stop-color:#4595D0"/>
		<stop  offset="1" style="stop-color:#5653A2"/>
	</linearGradient>
	<path fill-rule="evenodd" clip-rule="evenodd" fill="url(#SVGID_1_)" d="M539.802,161.838c0.482-1.755,0.902-3.254,1.307-4.757
		c4.087-15.242,8.161-30.485,12.261-45.723c1.224-4.547,2.261-9.156,4.009-13.545c2.148-5.391,6.805-8.251,12.61-8.004
		c2.794,0.119,5.423,0.598,7.623,2.444c2.378,1.995,3.823,4.564,4.695,7.531c3.523,11.992,6.612,24.104,9.918,36.155
		c2.262,8.249,4.48,16.509,6.722,24.764c0.068,0.251,0.173,0.493,0.445,0.742c0.441-1.92,0.894-3.839,1.325-5.761
		c2.576-11.479,5.146-22.958,7.721-34.438c1.644-7.322,3.285-14.645,4.945-21.962c0.224-0.986,0.485-1.975,0.847-2.917
		c1.561-4.059,4.092-6.496,8.699-6.579c4.288-0.078,8.224,2.475,9.429,6.43c0.64,2.098,0.414,4.225,0.035,6.328
		c-1.129,6.297-2.887,12.45-4.401,18.658c-2.361,9.667-4.769,19.322-7.177,28.978c-2.722,10.91-5.219,21.877-8.236,32.711
		c-0.697,2.503-1.616,4.873-3.373,6.895c-1.961,2.255-4.411,3.387-7.304,3.589c-2.124,0.148-4.28,0.149-6.311-0.651
		c-3.272-1.291-5.533-3.663-6.745-6.92c-1.922-5.174-3.24-10.535-4.674-15.858c-3.651-13.55-7.315-27.097-10.975-40.645
		c-1.101-4.077-2.197-8.156-3.297-12.233c-0.044-0.162-0.104-0.319-0.224-0.685c-0.167,0.394-0.291,0.612-0.354,0.848
		c-4.094,14.985-8.161,29.978-12.279,44.956c-2.081,7.572-3.92,15.216-6.479,22.65c-1.61,4.679-4.633,7.908-9.781,8.461
		c-5.759,0.619-10.316-0.718-13.113-7.132c-1.799-4.123-2.633-8.54-3.717-12.871c-3.651-14.602-7.244-29.218-10.846-43.831
		c-2.056-8.34-4.115-16.678-6.11-25.032c-0.575-2.407-0.966-4.878-0.483-7.356c0.859-4.404,4.891-7.425,9.577-7.273
		c1.8,0.058,3.544,0.297,5.126,1.256c1.911,1.159,2.62,3.118,3.355,5.042c1.678,4.392,2.433,9.026,3.471,13.583
		c2.326,10.211,4.592,20.435,6.883,30.654c1.51,6.746,3.019,13.491,4.532,20.236C539.533,160.907,539.637,161.234,539.802,161.838z"
		/>
	<linearGradient id="SVGID_2_" gradientUnits="userSpaceOnUse" x1="719.708" y1="355.2617" x2="-222.0638" y2="8.6617">
		<stop  offset="0" style="stop-color:#4595D0"/>
		<stop  offset="1" style="stop-color:#5653A2"/>
	</linearGradient>
	<path fill-rule="evenodd" clip-rule="evenodd" fill="url(#SVGID_2_)" d="M105.892,142.358c0-13.233-0.006-26.466,0.006-39.699
		c0.002-1.83,0.346-3.61,1.004-5.326c1.364-3.551,4.24-5.008,7.741-5.594c1.487-0.249,2.993-0.279,4.494-0.279
		c15.403-0.009,30.807-0.008,46.211-0.003c1.89,0,3.771,0.095,5.581,0.726c2.87,0.999,4.614,3.529,4.795,6.479
		c0.357,5.81-3.758,8.475-8.498,8.476c-13.093,0.003-26.186-0.003-39.279,0.005c-2.104,0.001-1.813-0.279-1.816,1.85
		c-0.011,7.527,0.015,15.054-0.028,22.58c-0.005,0.949,0.268,1.146,1.173,1.144c10.467-0.033,20.935-0.034,31.403-0.006
		c1.458,0.004,2.932,0.058,4.369,0.396c3.966,0.932,5.807,3.619,5.836,7.384c0.031,3.926-2.484,6.759-6.276,7.329
		c-0.968,0.146-1.938,0.22-2.921,0.219c-10.712-0.013-21.425-0.011-32.138-0.004c-1.576,0.001-1.418-0.228-1.419,1.371
		c-0.005,10.958-0.005,21.915,0.001,32.873c0.001,1.733-0.27,3.423-0.891,5.03c-1.334,3.454-3.854,5.514-7.536,6.01
		c-4.264,0.574-8.187-0.865-10.322-4.79c-1.057-1.942-1.475-4.075-1.479-6.259C105.88,168.965,105.892,155.662,105.892,142.358z"/>
	<linearGradient id="SVGID_3_" gradientUnits="userSpaceOnUse" x1="748.8701" y1="275.9736" x2="-192.8734" y2="-70.616">
		<stop  offset="0" style="stop-color:#4595D0"/>
		<stop  offset="1" style="stop-color:#5653A2"/>
	</linearGradient>
	<path fill-rule="evenodd" clip-rule="evenodd" fill="url(#SVGID_3_)" d="M368.343,131.792c1.179-1.888,2.289-3.651,3.386-5.42
		c6.188-9.974,12.362-19.956,18.567-29.918c1.108-1.778,2.317-3.496,3.98-4.831c4.107-3.296,12.358-2.383,14.378,4.39
		c0.828,2.775,0.091,5.406-1.197,7.873c-2.482,4.749-5.636,9.083-8.542,13.568c-6.785,10.47-13.619,20.907-20.45,31.347
		c-0.316,0.482-0.343,0.964-0.343,1.49c0.002,10.5,0.019,21.001-0.01,31.502c-0.006,2.32-0.38,4.599-1.513,6.673
		c-1.717,3.144-4.417,4.736-7.967,4.938c-3.547,0.203-6.543-0.872-8.714-3.804c-1.177-1.589-1.68-3.449-1.935-5.363
		c-0.166-1.24-0.247-2.495-0.244-3.757c0.019-10.08,0.005-20.161,0.022-30.241c0.001-0.662-0.172-1.2-0.527-1.749
		c-8.099-12.53-16.197-25.062-24.265-37.612c-1.681-2.614-3.302-5.274-4.525-8.146c-1.335-3.132-1.584-6.216,0.538-9.151
		c3.208-4.436,9.35-4.543,12.738-2.625c1.692,0.958,2.705,2.607,3.768,4.158c4.152,6.054,7.816,12.416,11.696,18.642
		c3.493,5.604,6.932,11.24,10.396,16.86C367.797,130.963,368.027,131.303,368.343,131.792z"/>
	<linearGradient id="SVGID_4_" gradientUnits="userSpaceOnUse" x1="739.1699" y1="302.3262" x2="-202.5725" y2="-44.263">
		<stop  offset="0" style="stop-color:#4595D0"/>
		<stop  offset="1" style="stop-color:#5653A2"/>
	</linearGradient>
	<path fill-rule="evenodd" clip-rule="evenodd" fill="url(#SVGID_4_)" d="M292.421,141.558c0-13.406-0.008-26.813,0.01-40.219
		c0.002-1.857,0.274-3.693,0.958-5.438c1.581-4.032,5.104-6.297,9.428-6.086c5.609,0.273,9.163,3.64,9.762,9.278
		c0.14,1.316,0.228,2.638,0.227,3.969c-0.013,26.043-0.001,52.086-0.022,78.128c-0.001,2.49-0.307,4.957-1.482,7.219
		c-1.583,3.046-4.185,4.642-7.523,4.967c-2.788,0.272-5.402-0.249-7.639-2.166c-2.12-1.817-3.061-4.188-3.494-6.828
		c-0.191-1.17-0.235-2.358-0.234-3.55C292.427,167.741,292.421,154.649,292.421,141.558z"/>
	<linearGradient id="SVGID_5_" gradientUnits="userSpaceOnUse" x1="729.5176" y1="328.5566" x2="-212.226" y2="-18.033">
		<stop  offset="0" style="stop-color:#4595D0"/>
		<stop  offset="1" style="stop-color:#5653A2"/>
	</linearGradient>
	<path fill-rule="evenodd" clip-rule="evenodd" fill="url(#SVGID_5_)" d="M273.62,182.235c-2.846-7.79-6.893-14.88-11.723-21.557
		c-2.725-3.767-5.693-7.338-9.267-10.36c-1.676-1.418-3.496-2.634-5.499-3.802c0.231-0.076,0.314-0.11,0.399-0.13
		c4.795-1.092,9.403-2.66,13.6-5.292c5.127-3.215,8.658-7.651,10.239-13.529c0.949-3.529,1.255-7.123,0.974-10.787
		c-0.499-6.52-2.836-12.228-7.445-16.879c-3.839-3.872-8.569-6.207-13.893-7.323c-5.056-1.061-10.2-1.081-15.33-1.106
		c-10.535-0.053-21.07-0.021-31.605-0.011c-1.465,0.001-2.933,0.047-4.385,0.271c-3.215,0.496-5.985,1.716-7.53,4.806
		c-1.02,2.04-1.388,4.253-1.39,6.502c-0.019,26.111-0.01,52.222-0.017,78.333c0,1.406,0.14,2.794,0.438,4.16
		c0.756,3.455,2.531,6.102,6.002,7.346c1.474,0.528,3.01,0.604,4.551,0.519c3.502-0.196,6.211-1.709,7.88-4.872
		c1.171-2.221,1.482-4.653,1.492-7.102c0.039-10.5,0.024-21.001,0.002-31.501c-0.002-0.771,0.122-1.101,1.007-1.074
		c3.074,0.093,6.149-0.018,9.225,0.213c4.482,0.336,8.297,2.039,11.449,5.234c2.515,2.55,4.582,5.45,6.487,8.464
		c5.021,7.943,9.655,16.121,14.657,24.078c3.322,5.284,7.41,7.376,13.055,6.353C271.375,192.395,275.696,187.915,273.62,182.235z
		 M231.084,134.3c-6.267,0.024-12.533-0.01-18.799,0.027c-0.892,0.005-1.194-0.171-1.181-1.137
		c0.059-4.235,0.025-8.471,0.025-12.708c0-4.236,0.019-8.472-0.016-12.708c-0.006-0.787,0.152-1.083,1.021-1.077
		c5.671,0.04,11.345-0.081,17.012,0.054c4.214,0.101,8.446,0.042,12.621,0.925c5.063,1.072,9.366,5.683,9.885,10.832
		c0.371,3.684-0.04,7.201-2.503,10.178c-2.028,2.45-4.792,3.67-7.795,4.412C237.984,133.932,234.549,134.287,231.084,134.3z"/>
	<linearGradient id="SVGID_6_" gradientUnits="userSpaceOnUse" x1="755.0625" y1="259.1685" x2="-186.6981" y2="-87.4274">
		<stop  offset="0" style="stop-color:#4595D0"/>
		<stop  offset="1" style="stop-color:#5653A2"/>
	</linearGradient>
	<path fill-rule="evenodd" clip-rule="evenodd" fill="url(#SVGID_6_)" d="M499.021,179.048c-1.799-5.552-4.207-10.869-6.379-16.276
		c-5.166-12.857-10.406-25.686-15.602-38.531c-3.284-8.123-6.45-16.294-9.844-24.37c-2.574-6.126-6.813-10.205-13.701-10.044
		c-4.354-0.103-7.914,1.094-10.747,4.144c-1.842,1.983-3.05,4.352-4.038,6.818c-2.949,7.354-5.817,14.742-8.723,22.113
		c-5.939,15.068-11.903,30.125-17.811,45.205c-1.616,4.125-3.469,8.168-4.679,12.442c-0.686,2.421-0.939,4.897,0.282,7.24
		c2.457,4.713,7.02,6.501,12.005,5.289c1.843-0.448,3.144-1.609,4.108-3.194c1.002-1.646,1.809-3.39,2.539-5.168
		c2.175-5.295,4.048-10.707,6.061-16.064c0.246-0.655,0.529-0.896,1.257-0.895c12.951,0.026,25.903,0.023,38.854,0.005
		c0.616,0,0.93,0.169,1.135,0.767c0.428,1.255,0.939,2.48,1.41,3.721c2.008,5.286,3.924,10.608,6.424,15.694
		c1.808,3.678,4.612,5.611,8.832,5.484c3.949-0.12,7.85-2.83,9.125-6.581C500.438,184.177,499.846,181.596,499.021,179.048z
		 M438.224,152.391c4.881-13.619,9.734-27.16,14.588-40.7c0.084,0.003,0.168,0.005,0.252,0.006
		c4.94,13.537,9.881,27.072,14.853,40.694C457.954,152.391,448.141,152.391,438.224,152.391z"/>
	<linearGradient id="SVGID_7_" gradientUnits="userSpaceOnUse" x1="782.7344" y1="183.9722" x2="-159.0171" y2="-162.6204">
		<stop  offset="0" style="stop-color:#4595D0"/>
		<stop  offset="1" style="stop-color:#5653A2"/>
	</linearGradient>
	<path fill-rule="evenodd" clip-rule="evenodd" fill="url(#SVGID_7_)" d="M730.925,178.525c-2.889-8.128-6.35-16.033-9.567-24.034
		c-5.887-14.641-11.829-29.258-17.772-43.876c-1.655-4.073-3.019-8.267-4.997-12.208c-2.778-5.531-7.029-8.763-13.33-8.581
		c-3.077-0.043-5.856,0.564-8.341,2.296c-2.657,1.852-4.316,4.467-5.534,7.353c-1.819,4.308-3.487,8.678-5.204,13.028
		c-7.152,18.118-14.315,36.232-21.437,54.363c-1.771,4.513-3.76,8.95-5.157,13.603c-0.749,2.493-0.997,5.055,0.33,7.44
		c2.426,4.358,6.091,5.944,10.551,5.453c2.61-0.288,4.533-1.604,5.798-3.96c1.659-3.088,2.954-6.323,4.173-9.597
		c1.386-3.728,2.785-7.451,4.135-11.191c0.246-0.681,0.59-0.9,1.29-0.852c0.941,0.065,1.889,0.016,2.834,0.016
		c11.866,0,23.732,0.01,35.598-0.02c0.89-0.002,1.385,0.162,1.647,1.104c0.337,1.206,0.883,2.352,1.33,3.526
		c1.98,5.185,3.867,10.405,6.294,15.41c1.847,3.809,4.715,5.778,9.065,5.635c4.246-0.141,8.487-3.555,9.294-7.729
		C732.408,183.194,731.74,180.82,730.925,178.525z M670.296,152.396c4.891-13.649,9.756-27.225,14.714-41.056
		c5.044,13.825,9.998,27.398,14.981,41.056C690.042,152.396,680.227,152.396,670.296,152.396z"/>
</g>
<g id="Layer_2">
	<g>
		
			<linearGradient id="SVGID_8_" gradientUnits="userSpaceOnUse" x1="750.7168" y1="395.7813" x2="860.3047" y2="395.7813" gradientTransform="matrix(1 0 0 -1 8.3398 536.04)">
			<stop  offset="0" style="stop-color:#4595D0"/>
			<stop  offset="1" style="stop-color:#5653A2"/>
		</linearGradient>
		<polygon fill="#FCFDFF" stroke="url(#SVGID_8_)" stroke-width="8" stroke-miterlimit="10" points="864.645,92.833 
			864.645,163.221 813.851,189.551 763.057,161.852 763.057,92.833 813.851,117.563 		"/>
		<g>
			<linearGradient id="SVGID_9_" gradientUnits="userSpaceOnUse" x1="790.6074" y1="151.1406" x2="837.1016" y2="151.1406">
				<stop  offset="0" style="stop-color:#4595D0"/>
				<stop  offset="1" style="stop-color:#5653A2"/>
			</linearGradient>
			<linearGradient id="SVGID_10_" gradientUnits="userSpaceOnUse" x1="787.7969" y1="151.541" x2="839.9268" y2="151.541">
				<stop  offset="0" style="stop-color:#4595D0"/>
				<stop  offset="1" style="stop-color:#5653A2"/>
			</linearGradient>
			<path fill="url(#SVGID_9_)" stroke="url(#SVGID_10_)" stroke-width="4" stroke-miterlimit="10" d="M793.657,157.275
				c-1.023-1.129-2.037-2.25-3.05-3.37c12.316-11.372,32.79-12.35,46.494-0.016c-1.016,1.127-2.033,2.255-3.056,3.389
				c-5.795-5.064-12.503-7.705-20.224-7.7C806.117,149.584,799.43,152.23,793.657,157.275z"/>
			<linearGradient id="SVGID_11_" gradientUnits="userSpaceOnUse" x1="781.0537" y1="138.7715" x2="846.6484" y2="138.7715">
				<stop  offset="0" style="stop-color:#4595D0"/>
				<stop  offset="1" style="stop-color:#5653A2"/>
			</linearGradient>
			<linearGradient id="SVGID_12_" gradientUnits="userSpaceOnUse" x1="778.1904" y1="139.1572" x2="849.6357" y2="139.1572">
				<stop  offset="0" style="stop-color:#4595D0"/>
				<stop  offset="1" style="stop-color:#5653A2"/>
			</linearGradient>
			<path fill="url(#SVGID_11_)" stroke="url(#SVGID_12_)" stroke-width="4" stroke-miterlimit="10" d="M846.648,143.318
				c-1.037,1.152-2.043,2.273-3.074,3.415c-0.5-0.42-0.983-0.833-1.467-1.239c-2.015-1.691-4.178-3.169-6.474-4.455
				c-4.375-2.449-9.035-4.139-13.996-4.996c-0.832-0.141-1.662-0.292-2.491-0.436c-0.304-0.008-0.616,0.007-0.919-0.022
				c-2.909-0.296-5.813-0.277-8.728-0.004c-3.631,0.336-7.154,1.133-10.583,2.349c-3.301,1.171-6.409,2.715-9.336,4.625
				c-1.876,1.224-3.646,2.577-5.301,4.074c-0.035,0.035-0.085,0.053-0.154,0.096c-1.014-1.121-2.028-2.24-3.072-3.4
				c0.66-0.561,1.302-1.118,1.959-1.656c2.159-1.767,4.469-3.324,6.906-4.686c2.894-1.607,5.923-2.914,9.09-3.916
				c3.097-0.978,6.258-1.645,9.481-1.986c1.528-0.163,3.068-0.2,4.605-0.269c0.426-0.019,0.861,0.057,1.287,0.091
				c0.1-0.034,0.198-0.096,0.298-0.091c2.414,0.049,4.813,0.234,7.192,0.629c2.752,0.455,5.448,1.127,8.074,2.04
				c3.317,1.152,6.47,2.634,9.46,4.468c2.524,1.548,4.897,3.284,7.088,5.262C846.528,143.247,846.579,143.269,846.648,143.318z"/>
			<linearGradient id="SVGID_13_" gradientUnits="userSpaceOnUse" x1="800.1357" y1="163.5215" x2="827.5703" y2="163.5215">
				<stop  offset="0" style="stop-color:#4595D0"/>
				<stop  offset="1" style="stop-color:#5653A2"/>
			</linearGradient>
			<linearGradient id="SVGID_14_" gradientUnits="userSpaceOnUse" x1="797.3359" y1="163.9199" x2="830.3867" y2="163.9199">
				<stop  offset="0" style="stop-color:#4595D0"/>
				<stop  offset="1" style="stop-color:#5653A2"/>
			</linearGradient>
			<path fill="url(#SVGID_13_)" stroke="url(#SVGID_14_)" stroke-width="4" stroke-miterlimit="10" d="M803.197,167.833
				c-1.037-1.146-2.05-2.263-3.062-3.382c7.135-6.704,19.5-7.264,27.435-0.013c-1.014,1.123-2.029,2.248-3.063,3.392
				c-3.074-2.663-6.613-4.065-10.682-4.06C809.777,163.778,806.249,165.175,803.197,167.833z"/>
		</g>
	</g>
</g>
</svg>
